  <svg width="750" height="750">
    <path fill="#D14740" transform="scale(1 1)" d="M126.899 312.399C130.448 312.25 135.323 312.57 138.157 315.023C138.966 315.723 139.517 316.646 139.455 317.753C139.343 319.73 137.639 321.103 136.288 322.319C135.691 322.435 135.091 322.527 134.483 322.566C131.515 322.758 127.441 321.9 125.222 319.811C124.412 319.048 123.835 318.039 123.907 316.893C124.028 314.996 125.547 313.551 126.899 312.399Z"/>
    <path fill="#D14740" transform="scale(1 1)" d="M284.287 131.192C285.105 131.177 285.929 131.163 286.746 131.216C289.748 131.412 292.961 132.543 294.908 134.944C296.102 136.416 296.684 138.253 296.387 140.14C295.912 143.154 293.461 145.557 291.07 147.23C289.916 147.527 288.663 147.695 287.475 147.531Q286.959 147.463 286.454 147.342Q285.948 147.221 285.458 147.047Q284.968 146.873 284.499 146.649Q284.03 146.425 283.586 146.154Q283.143 145.882 282.731 145.565Q282.319 145.248 281.942 144.89Q281.565 144.532 281.227 144.136Q280.89 143.741 280.596 143.312C279.338 141.444 278.8 139.114 279.339 136.906C279.986 134.254 282.005 132.493 284.287 131.192Z"/>
    <path fill="#D14740" transform="scale(1 1)" d="M332.211 112.061Q333.043 112.168 333.868 112.318C336.857 112.88 340.026 114.448 341.711 117.075Q341.911 117.381 342.08 117.705Q342.25 118.029 342.386 118.368Q342.522 118.707 342.623 119.058Q342.725 119.409 342.792 119.768Q342.858 120.128 342.889 120.492Q342.919 120.856 342.913 121.221Q342.908 121.587 342.866 121.95Q342.824 122.313 342.746 122.67C341.943 126.295 338.964 128.298 336.005 130.101C335.128 130.36 334.165 130.511 333.247 130.467C329.821 130.306 327.322 127.917 325.075 125.605C325.029 123.527 325.012 121.259 325.592 119.248C326.641 115.603 329.036 113.811 332.211 112.061Z"/>
    <path fill="#D14740" transform="scale(1 1)" d="M470.299 358.489C473.11 359.489 475.696 360.544 477.867 362.696C479.539 364.352 480.666 366.501 480.652 368.892C480.625 373.316 476.525 377.063 473.524 379.855C472.79 379.708 472.069 379.558 471.359 379.314C466.734 377.728 464.613 373.524 462.551 369.452C464.562 365.225 466.929 361.738 470.299 358.489Z"/>
    <path fill="#D14740" transform="scale(1 1)" d="M212.185 200.311C213.354 200.207 214.474 200.179 215.635 200.388C217.947 200.803 220.048 201.947 221.388 203.908C222.799 205.974 223.134 208.678 222.578 211.086C221.663 215.051 218.979 217.59 215.622 219.594C214.134 219.818 212.38 219.37 211.05 218.691C207.634 216.945 206.002 213.465 204.826 210.019C206.431 205.51 208.408 203.118 212.185 200.311Z"/>
    <path fill="#D14740" transform="scale(1 1)" d="M186.383 239.147Q188.062 239.141 189.689 239.553C192.378 240.242 194.646 241.876 195.922 244.364C197.224 246.903 197.326 249.987 196.467 252.68C195.299 256.34 192.506 259.345 189.175 261.164C188.155 260.911 187.121 260.658 186.163 260.217C181.628 258.126 179.807 254.042 178.157 249.646C179.991 244.952 181.58 241.425 186.383 239.147Z"/>
    <path fill="#D14740" transform="scale(1 1)" d="M537.88 584.869C538.981 584.991 540.182 585.335 541.172 585.83Q541.597 586.046 541.999 586.303Q542.401 586.56 542.776 586.854Q543.152 587.148 543.497 587.477Q543.842 587.807 544.153 588.168Q544.465 588.529 544.74 588.919Q545.015 589.309 545.25 589.723Q545.486 590.138 545.681 590.573Q545.875 591.009 546.027 591.461C546.831 593.852 546.762 596.547 545.587 598.804C544.122 601.62 542.101 602.631 539.169 603.499C537.495 603.148 535.859 602.667 534.214 602.203C531.991 601.509 529.562 600.784 527.481 599.747C525.808 598.913 523.821 597.607 523.245 595.715C522.904 594.596 523.083 593.498 523.681 592.496C526.091 588.459 533.513 585.9 537.88 584.869Z"/>
    <path fill="#FF9AB6" transform="scale(1 1)" d="M663.614 348.397C668.143 346.319 672.525 344.295 677.367 343.033C681.583 344.541 686.078 346.884 687.976 351.203C688.981 353.489 689.417 356.092 688.367 358.442C685.885 363.994 678.81 364.192 675.676 370.5C673.482 366.034 669.104 353.078 665.932 349.879C665.314 349.256 664.38 348.814 663.614 348.397Z"/>
    <path fill="#D14740" transform="scale(1 1)" d="M442.446 605.041C443.39 604.999 444.661 604.833 445.556 605.18C450.551 607.116 449.167 615.865 451.31 620.062C453.419 624.194 458.663 624.792 462.649 626.105C464.905 626.848 467.348 627.859 468.395 630.16C469.012 631.517 469.194 633.378 468.554 634.76C467.02 638.073 461.582 639.445 458.396 640.758C451.11 643.761 451.351 647.401 448.503 653.699C447.455 656.017 446.427 656.738 444.075 657.597Q443.241 657.542 442.411 657.445C437.376 656.825 435.678 649.033 433.77 645.212C432.859 643.386 431.643 641.804 430.407 640.192C427.909 639.79 425.354 639.51 422.956 638.673C421.001 637.99 418.648 636.872 417.768 634.852C417.274 633.719 417.353 632.424 417.811 631.292C419.351 627.487 425.446 627.176 428.758 625.762C436.765 622.34 435.12 615.6 437.937 609.177C438.918 606.94 440.185 605.878 442.446 605.041Z"/>
    <path fill="#FF9AB6" transform="scale(1 1)" d="M442.636 626.182C442.891 626.203 443.146 626.225 443.399 626.258C445.366 626.52 447.493 627.554 448.657 629.212C449.705 630.705 449.932 632.599 449.529 634.35C448.882 637.157 447.071 638.437 444.765 639.895C442.131 639.147 439.25 638.205 437.66 635.807C436.971 634.766 436.701 633.557 436.965 632.333C437.594 629.411 440.274 627.663 442.636 626.182Z"/>
    <path fill="#D14740" transform="scale(1 1)" d="M253.724 285.297C255.66 285.216 257.391 285.418 259.242 286.026C263.425 287.399 266.59 290.253 268.556 294.178C272.579 302.208 271.621 313.532 268.954 321.833C262.241 342.723 242.829 353.963 224.432 363.331C224.645 368.121 224.851 373.027 224.382 377.807C222.318 398.817 203.821 428.417 187.502 441.84C179.186 448.68 170.075 452.869 159.122 451.755C153.489 451.182 144.764 450.048 141.051 445.186C140.148 444.003 139.427 442.304 139.789 440.791C141.726 432.687 158.549 437.98 164.155 438.025C167.928 438.055 171.586 437.066 174.938 435.37C187.828 428.846 199.41 409.974 204.608 396.767C206.646 391.591 208.051 386.042 209.088 380.587C209.65 377.625 210.267 374.422 210.26 371.399C210.25 367.279 206.796 362.543 209.835 358.827C212.952 355.015 217.664 352.59 221.802 350.068C234.56 342.293 250.686 333.47 255.432 318.267C257.547 311.495 257.438 305.895 254.122 299.55C247.316 305.274 239.621 310.199 232.313 315.265C218.814 324.714 204.037 332.815 189.925 341.33C176.147 349.643 162.446 357.601 152.081 370.26C144.61 379.385 139.466 389.904 133.231 399.831C131.947 401.875 130.39 404.733 128.472 406.244C125.576 408.525 120.939 409.809 117.586 411.484C106.357 417.095 95.2871 422.834 83.9124 428.17C78.2385 430.831 72.5778 433.925 66.4417 435.341C65.4236 434.825 64.2869 434.272 63.4517 433.482C60.8989 431.068 61.1227 427.701 61.0914 424.467C67.1168 419.65 74.9205 416.93 81.8635 413.713L104.758 402.901C109.881 400.467 115.791 398.078 119.87 394.041C124.163 389.791 126.915 384.105 129.907 378.919C136.599 367.318 144.203 356.647 154.329 347.775C164.034 339.271 176.242 332.934 187.35 326.46Q198.37 319.892 209.233 313.066C215.418 309.236 221.768 305.519 227.754 301.384C233.672 297.295 239.316 292.748 245.457 288.986C247.976 287.443 250.866 286.064 253.724 285.297Z"/>
    <path fill="#D14740" transform="scale(1 1)" d="M663.614 348.397C664.38 348.814 665.314 349.256 665.932 349.879C669.104 353.078 673.482 366.034 675.676 370.5C670.514 383.713 659.316 389.589 647.788 396.596C642.796 399.63 637.985 402.888 633.187 406.217C635.564 412.304 636.244 418.682 635.856 425.19C635.183 436.493 630.296 447.485 621.703 454.999C613.393 462.266 585.861 478.989 575.488 482.474Q573.734 483.054 571.932 483.46Q570.13 483.865 568.297 484.093Q566.464 484.322 564.617 484.37Q562.771 484.417 560.928 484.285C550.915 483.532 542.044 478.421 535.575 470.857Q527.385 475.872 519.275 481.015C520.257 483.905 520.476 487.174 520.436 490.213C520.288 501.68 515.934 514.62 507.544 522.704C500.762 529.238 471.34 547.526 462.74 550.782C458.025 552.567 452.799 553.352 447.767 553.213C435.861 552.886 426.088 546.515 418.098 538.104C413.83 541.113 409.114 543.524 404.553 546.05C404.638 546.836 404.707 547.615 404.74 548.405C405.389 563.906 402.837 578.122 392.006 589.803C381.103 601.564 349.116 620.134 333.147 620.663C318.556 621.146 308.49 612.994 298.39 603.624C294.084 606.926 289.333 609.401 284.578 611.979C285.095 626.577 283.259 641.01 273.154 652.241C263.892 662.535 239.677 676.581 226.495 680.947C222.759 682.185 218.884 682.786 214.958 682.962C201.86 683.55 191.444 679.085 181.846 670.324C173.9 676.405 146.119 692.075 136.291 691.65C133.04 691.509 129.915 690.313 127.708 687.866C123.253 682.928 123.924 675.155 124.129 668.982C134.641 656.652 150.78 648.771 164.593 640.67C163.633 637.574 162.926 634.554 162.527 631.334C160.709 616.641 163.687 603.75 172.853 592.034C183.879 577.94 207.898 566.676 225.563 564.626C237.419 563.25 247.944 565.945 257.533 573.045C260.577 575.298 263.354 577.915 266.336 580.26C272.634 577.115 278.202 572.715 284.591 569.659C282.894 563.936 282.299 557.987 283.155 552.069C285.4 536.53 294.823 524.189 307.187 515.012C321.206 504.607 339.092 497.74 356.687 500.457C366.387 501.955 379.239 506.574 385.315 514.791C389.633 511.817 394.024 509.091 398.674 506.658C398.29 502.635 398.358 498.461 398.396 494.421C398.531 479.882 402.168 467.717 412.847 457.368C425.558 445.051 450.36 433.265 468.254 433.549C479.746 433.731 492.839 439.442 500.862 447.654C505.931 443.657 512.082 440.647 517.804 437.685Q516.673 434.763 516.025 431.696Q515.377 428.63 515.229 425.5C514.571 412.935 519.831 400.034 528.219 390.783C540.823 376.882 565.342 364.157 584.316 363.372C595.259 362.92 607.565 366.833 615.673 374.347C619.592 371.131 624.028 368.487 628.269 365.72C639.58 358.34 650.165 351.304 663.614 348.397ZM350.525 533.251C341.586 535.414 323.721 543.918 318.926 552.077C318.342 553.072 317.897 554.174 317.449 555.233C317.603 555.304 317.755 555.376 317.909 555.445C324.203 558.227 331.297 557.469 334.408 564.987C335.721 568.16 336.027 571.529 336.076 574.924C334.301 577.677 330.152 581.414 329.756 584.541C330.103 585.065 330.017 585.169 330.694 585.325C331.54 585.521 332.233 585.433 333.078 585.33C337.757 583.648 341.88 580.078 346.314 577.776C351.506 575.081 363.837 570.578 367.462 567.223C368.605 566.165 369.451 564.299 370.116 562.889Q370.958 561.086 371.753 559.262C365.999 558.483 359.839 557.82 355.982 552.87C353.159 549.248 353.147 545.026 353.789 540.704C354.12 538.475 355.035 535.63 353.9 533.546C352.713 532.935 351.846 533.096 350.525 533.251ZM231.502 598.074C222.081 601.039 201.142 609.601 196.427 618.634C195.964 619.521 195.714 620.623 196.22 621.558C196.679 622.406 197.339 622.742 198.258 622.848C203.895 623.502 206.899 622.592 211.222 627.258C213.845 630.089 214.691 632.799 214.535 636.662C214.395 640.116 212.195 644.492 212.68 647.703C213.053 647.804 213.378 647.91 213.766 647.923C222.701 643.526 231.218 638.506 239.891 633.629C242.305 632.272 245.051 631.342 247.328 629.775C248.302 629.104 249.39 628.215 249.795 627.071C250.008 626.469 249.753 626.208 249.536 625.652C245.004 621.757 234.703 622.581 234.017 613.847C233.668 609.391 236.584 602.954 234.388 598.935C233.355 598.171 232.784 598.063 231.502 598.074ZM464.136 468.424C456.848 471.96 437.048 480.491 434.254 488.128C433.712 489.608 433.891 491.243 434.411 492.697C438.497 494.74 451.462 485.711 456.698 501.225C457.852 504.641 458.272 508.105 456.499 511.399C454.934 514.307 452.194 516.447 449.716 518.551C450.333 518.936 450.063 518.936 450.694 518.775C454.928 517.695 458.999 512.69 462.766 510.354C468.966 506.509 475.934 503.896 481.787 499.486C484.463 497.47 486.305 495.166 488.221 492.445C483.918 493.121 478.634 492.816 475.019 490.155C472.139 488.034 470.726 484.637 470.271 481.177C469.848 477.961 470.644 471.457 468.171 469.12C467.102 468.11 465.475 468.352 464.136 468.424ZM580.678 398.861C572.324 401.178 555.323 411.843 551.097 419.445C550.526 420.471 549.882 421.722 550.198 422.92C550.336 423.444 550.73 423.761 551.233 423.962C556.264 425.975 566.013 419.178 572.124 428.843C574.147 432.041 575.202 436.033 574.263 439.761C573.548 442.598 571.932 444.95 570.121 447.191L569.243 448.417L569.614 448.649C573.391 446.881 576.548 442.682 579.919 440.127C588.178 433.867 596.722 431.816 601.531 421.722C596.032 420.772 589.888 419.925 586.411 414.981C582.493 409.413 586.611 400.011 582.914 399.063C582.232 398.888 581.384 398.906 580.678 398.861Z"/>
    <path fill="#FF9AB6" transform="scale(1 1)" d="M435.293 529.124C436.316 531.006 436.606 533.093 437.185 535.133C438.514 536.2 440.098 537.241 441.176 538.556C439.327 537.982 437.394 537.187 435.822 536.045C434.707 535.235 433.705 534.083 433.599 532.65C433.487 531.142 434.387 530.183 435.293 529.124Z"/>
    <path transform="scale(1 1)" d="M657.372 365.438C658.963 365.311 660.625 365.627 661.921 366.586C662.35 367.538 662.479 368.062 662.065 369.105C661.002 371.781 658.58 374.007 656.368 375.779C649.684 381.133 641.789 385.03 634.623 389.712C623.467 397.001 612.871 405.511 600.692 411.1C600.336 411.177 600.38 411.195 599.929 411.118C598.827 410.928 597.332 409.983 596.752 409.001C596.242 408.136 596.177 407.433 596.459 406.477C596.976 404.722 598.799 403.118 600.166 402.006C606.127 397.155 613.146 393.578 619.568 389.387C632.149 381.179 644.175 372.701 657.372 365.438Z"/>
    <path transform="scale(1 1)" d="M199.929 634.562C201.231 634.812 202.071 635.423 202.772 636.528C203.518 637.702 203.886 639.215 203.468 640.571C202.68 643.123 198.067 645.9 195.94 647.34C186.309 653.865 175.815 659.04 165.745 664.835C156.003 670.441 146.565 676.582 136.792 682.133C135.176 681.096 133.859 679.836 132.477 678.521C133.821 676.357 135.313 674.655 137.243 673.013C141.996 668.968 147.661 665.886 152.868 662.46C168.126 652.421 183.535 642.663 199.929 634.562Z"/>
    <path transform="scale(1 1)" d="M497.654 490.974C500.538 489.471 503.332 488.121 506.403 487.047C506.758 495.799 506.566 503.872 500.282 510.714C491.363 520.425 461.463 539.172 448.398 539.729C446.076 539.828 443.309 539.537 441.176 538.556C440.098 537.241 438.514 536.2 437.185 535.133C436.606 533.093 436.316 531.006 435.293 529.124C435.4 529.101 435.506 529.076 435.612 529.055C440.411 528.129 445.192 530.855 450.058 530.167C460.723 528.659 487.163 513.497 493.403 504.637C496.18 500.694 497.126 495.674 497.654 490.974Z"/>
    <path transform="scale(1 1)" d="M319.723 567.229C321.05 567.666 321.794 568.23 322.395 569.501C322.985 570.749 322.693 572.417 322.171 573.631C321.484 575.232 320.531 576.284 319.155 577.319C313.247 581.767 305.931 584.847 299.424 588.36C293.027 591.815 286.745 595.492 280.293 598.843C275.906 601.121 271.383 603.124 266.963 605.334C261.053 608.289 255.251 611.401 249.068 613.761C248.959 613.766 248.851 613.776 248.742 613.777C247.455 613.783 247.076 613.553 246.172 612.709C245.661 611.237 245.898 610.072 246.51 608.653C247.676 605.95 249.909 603.868 252.333 602.281C258.311 598.368 265.67 596.05 272.022 592.648C287.921 584.134 303.055 574.278 319.723 567.229Z"/>
    <path transform="scale(1 1)" d="M620.373 415.225L620.789 415.19C621.596 415.599 621.785 416.024 622.043 416.868C623.832 422.71 622.008 432.417 619.111 437.663C614.031 446.863 580.307 467.089 570.08 470.077C564.316 471.76 559.393 470.519 554.282 467.762C552.517 466.713 550.802 465.552 549.075 464.441C550.867 463.278 552.743 462.275 554.617 461.252C563.899 462.262 570.364 462.041 578.588 457.252C582.118 455.197 585.377 452.661 588.755 450.37C596.261 445.277 606.27 440.197 610.995 432.212C613.538 427.914 614.54 422.787 615.805 418.007C617.269 416.992 618.838 416.126 620.373 415.225Z"/>
    <path transform="scale(1 1)" d="M267.441 619.71L269.198 619.556C269.874 619.968 270.077 620.125 270.394 620.897C271.756 624.217 269.659 631.114 268.384 634.376C267.436 636.803 266.138 639.501 264.467 641.51C256.328 651.297 238.629 660.523 226.931 665.682C217.123 670.007 209.421 671.018 199.329 667.086C197.599 666.16 196.244 665.244 194.756 663.95C196.553 661.501 198.687 659.478 200.973 657.494C202.901 658.296 204.822 659.069 206.844 659.604C215.544 661.905 224.679 657.446 232.045 653.172C240.087 648.505 253.603 641.345 258.324 633.146C260.503 629.36 261.56 624.975 262.669 620.785L267.441 619.71Z"/>
    <path transform="scale(1 1)" d="M439.743 501.296C440.339 501.375 440.807 501.502 441.345 501.782C443.532 502.921 444.252 506.469 444.924 508.63C436.02 515.532 424.904 520.154 414.945 525.359C400.422 532.95 386.108 542.429 370.153 546.704C369.347 546.817 368.479 546.963 367.67 546.817C366.755 546.651 366.021 546.044 365.598 545.224C365.161 544.378 365.224 543.537 365.572 542.682C366.378 540.699 368.315 539.225 370.042 538.069C378.986 532.084 389.393 527.702 398.919 522.689C412.506 515.538 425.79 507.72 439.743 501.296Z"/>
    <path transform="scale(1 1)" d="M558.404 433.205C559.11 433.648 559.838 434.219 560.261 434.954C560.845 435.97 560.896 437.114 560.555 438.215C559.85 440.495 557.872 442.256 556.076 443.718C549.274 449.259 541.211 453.196 533.577 457.444C525.245 462.08 517.043 467.014 508.594 471.433C500.877 475.469 492.874 479.054 485.089 482.983C484.276 482.075 483.481 481.092 482.891 480.022C482.321 478.988 481.834 477.518 482.386 476.383C485.409 470.167 548.49 437.621 558.404 433.205Z"/>
    <path transform="scale(1 1)" d="M389.409 554.1L390.735 554.145C391.256 554.564 391.393 554.81 391.607 555.469C393.279 560.631 388.073 572.214 385.492 576.689C383.939 579.382 381.674 581.734 379.284 583.703C370.609 590.85 348.609 603.471 337.798 606.229C329.794 608.271 322.295 604.933 315.549 600.904C314.032 599.763 312.615 598.458 311.173 597.223C313.606 595.51 316.167 593.998 318.712 592.459C321.274 593.945 323.987 595.331 326.811 596.245C334.17 598.627 340.017 596.449 346.553 593.115C351.794 590.443 356.831 587.387 361.853 584.33C375.585 575.971 379.402 570.877 384.296 555.743L389.409 554.1Z"/>
    <path transform="scale(1 1)" d="M583.278 376.941C587.566 376.277 592.803 376.807 596.949 378.076C599.573 378.88 602.972 380.564 604.102 383.265C604.525 384.276 604.47 384.8 604.132 385.816C600.231 390.531 590.255 385.428 584.807 385.561C579.092 385.7 573.21 387.709 568.111 390.173C554.965 396.527 542.578 405.078 537.619 419.341C536.785 422.865 537.348 426.261 537.803 429.795Q533.272 431.422 528.659 432.8C528.435 431.85 528.215 430.894 528.057 429.93C526.522 420.536 529.488 410.381 535.04 402.763C545.372 388.589 566.441 379.578 583.278 376.941Z"/>
    <path transform="scale(1 1)" d="M344.452 513.169C351.529 512.589 357.759 513.372 364.476 515.718C367.265 516.692 372.672 519.191 373.698 522.104Q373.753 522.258 373.79 522.418Q373.826 522.577 373.842 522.74Q373.859 522.903 373.855 523.067Q373.852 523.231 373.828 523.393Q373.805 523.555 373.762 523.713Q373.719 523.871 373.657 524.022Q373.595 524.174 373.515 524.317Q373.435 524.46 373.338 524.592C369.552 529.746 359.874 523.262 355.258 522.165C352.892 521.603 350.202 521.661 347.786 521.9C335.407 523.12 317.549 533.513 309.763 543.042C306.041 548.963 304.955 554.957 304.092 561.819C301.812 562.51 297.827 563.845 295.547 563.018C295.08 562.391 294.906 561.885 294.804 561.123C293.719 552.976 298.222 542.741 302.973 536.349C311.934 524.291 329.839 515.412 344.452 513.169Z"/>
    <path transform="scale(1 1)" d="M229.574 577.683C236.432 577.877 245.83 579.432 251.117 584.193C252.176 585.147 252.98 586.363 253.007 587.832C253.044 589.902 251.417 591.141 250.061 592.449C247.305 591.007 244.541 589.617 241.652 588.458C232.246 584.686 224.686 585.748 215.517 589.737C205.199 594.226 189.223 603.402 184.882 614.398C183.766 619.008 183.748 623.709 183.132 628.394C180.796 630.302 178.398 631.94 176.46 634.281C175.261 630.914 173.947 627.486 173.78 623.879C173.378 615.255 177.878 605.254 183.66 599.027C193.755 588.154 214.659 578.193 229.574 577.683Z"/>
    <path transform="scale(1 1)" d="M464.224 446.842C465.368 446.727 466.59 446.7 467.738 446.746C473.271 446.966 485.238 449.932 488.909 454.196C489.419 454.789 489.871 455.709 489.707 456.505C489.342 458.276 487.173 459.706 485.843 460.8C478.147 457.159 469.859 454.614 461.357 456.611C448.536 459.623 430.093 470.625 423.04 482.018C420.753 486.582 420.718 492.527 421.124 497.499C417.818 498.789 414.794 499.667 411.247 499.966L411.164 499.541C409.519 490.804 411.777 480.632 416.819 473.327C426.336 459.539 448.286 449.879 464.224 446.842Z"/>
    <path fill="#D14740" transform="scale(1 1)" d="M309.394 267.886C300.752 269.767 292.622 270.892 284.812 265.723Q284.379 265.439 283.96 265.134Q283.541 264.828 283.138 264.503Q282.735 264.177 282.349 263.831Q281.963 263.486 281.594 263.122Q281.225 262.757 280.876 262.375Q280.526 261.993 280.195 261.594Q279.865 261.194 279.555 260.779Q279.245 260.364 278.956 259.934Q278.667 259.504 278.399 259.06Q278.132 258.616 277.887 258.159Q277.643 257.702 277.421 257.234Q277.199 256.765 277.001 256.286Q276.803 255.808 276.629 255.319Q276.456 254.831 276.306 254.335Q276.157 253.839 276.033 253.336Q275.908 252.833 275.809 252.324C274.304 244.448 278.687 237.537 283.034 231.405C293.586 216.521 320.011 182.895 335.419 174.675C340.473 171.978 345.918 169.984 351.318 168.098C357.189 166.047 373.041 162.283 377.037 158.337C384.918 150.554 392.947 134.398 399.012 124.625Q412.935 102.212 427.425 80.162C431.311 74.1222 434.616 66.8623 440.055 62.0319C445.074 57.5755 451.75 54.9908 458.306 53.9031C471.623 51.6935 484.201 55.9825 494.957 63.7552C505.247 71.1911 512.908 82.3234 514.967 94.9686C517.092 108.02 512.332 114.878 505.604 125.485Q500.474 133.606 495.248 141.666C502.63 145.75 510.34 148.581 518.241 151.448C540.391 159.484 551.531 161.847 574.652 155.17C592.026 150.153 609.321 144.364 626.513 138.736C635.678 135.736 644.569 132.203 654.002 130.073C655.105 130.663 656.261 131.213 657.327 131.863C658.794 135.372 659.293 137.731 657.89 141.407C657.844 141.527 657.792 141.645 657.743 141.763C648.122 148.145 628.861 152.417 617.385 156.109C599.102 161.992 580.727 169.287 561.833 172.852C554.719 174.194 547.779 174.933 540.62 173.5C528.509 171.075 496.329 159.04 485.98 152.705C480.23 163.664 472.486 174.111 466.137 184.823C474.313 182.739 481.963 181.565 490.35 183.05C492.467 184.854 493.775 186.564 494.02 189.426C494.201 191.537 493.525 193.529 492.134 195.122C490.489 197.005 488.248 198.119 485.748 198.217C481.853 198.369 478.196 196.747 474.209 197.146C467.969 197.771 461.464 199.766 455.357 201.207Q436.483 205.671 417.675 210.405C402.808 214.08 387.645 216.641 372.885 220.715C375.515 224.978 377.542 229.341 376.231 234.487C375.344 237.963 372.951 240.9 369.858 242.673C367.118 244.243 362.205 245.62 359.069 244.626C358.294 244.381 358.24 244.227 357.702 243.682C356.867 239.93 358.161 235.535 358.386 231.705C358.514 229.515 358.254 227.296 358.05 225.117C351.393 226.615 340.598 228.133 336.525 234.269C335.345 236.046 335.059 238.039 335.56 240.102C336.594 244.358 340.365 248.784 344.063 250.955C357.093 258.604 381.099 250.031 394.996 246.975C402.168 245.397 409.456 244.394 416.606 242.718C423.968 240.992 431.798 238.393 439.414 238.526C446.286 238.646 452.818 241.735 459.249 243.84C473.314 248.444 491.011 248.736 505.195 244.689C516.087 241.581 527.188 235.908 534.847 227.401C538.187 223.691 541.011 219.681 544.615 216.196C547.334 217.659 550.104 219.086 551.142 222.236C552.017 224.89 551.054 227.634 549.772 229.977C542.078 244.045 524.347 253.464 509.505 257.716C493.783 262.22 473.51 262.019 457.713 257.734C451.496 256.048 445.46 253.421 439.527 250.926C432.952 252.375 425.81 253.185 419.513 255.571C414.383 262.701 410.321 270.742 405.663 278.2C418.181 279.252 429.659 285.23 441.816 288.075Q449.839 290.001 458.023 291.041Q466.208 292.081 474.457 292.223C499.546 292.426 530.292 285.656 549.756 269.267C554.973 264.874 559.157 258.102 565.384 255.085C570.844 252.439 577.16 250.838 582.968 249.072L612.853 240.199Q626.733 236.1 640.558 231.816C646.456 229.969 652.314 227.838 658.293 226.284C660.842 225.622 663.744 224.889 666.395 225.073C667.251 225.133 667.874 225.444 668.467 226.061C669.859 227.509 670.954 230.453 670.713 232.46C670.445 234.689 668.868 236.491 667.099 237.746C661.165 241.957 652.277 242.855 645.388 244.977C622.588 252.002 598.898 257.757 576.787 266.747C568.465 270.13 563.659 276.375 557.023 282.003C542.626 294.212 523.699 299.47 505.477 302.815C495.336 304.677 484.856 305.951 474.528 305.708C470.994 305.625 467.4 305.413 463.889 305.013C458.831 304.437 441.044 301.139 437.264 302.271C433.928 303.27 430.581 312.369 427.477 315.088C419.684 321.917 407.875 326.946 397.931 329.515C403.133 334.803 407.482 341.175 407.281 348.93C407.094 356.14 402.716 360.902 397.778 365.499C401.389 370.959 404.688 376.225 403.282 383.113C402.112 388.84 398.024 393.496 393.191 396.552C390.386 398.326 387.359 399.584 384.218 400.624C386.163 406.232 386.764 412.272 384.13 417.797C381.363 423.601 375.896 427.351 370.88 431.068C371 437.872 369.515 444.589 364.543 449.55C361.351 452.734 357.015 455.029 352.94 456.855C342.104 461.71 330.454 464.419 319.413 468.754C305.973 474.031 293.021 481.029 279.234 485.358C275.367 486.572 271.421 487.536 267.533 488.68C263.788 489.78 260.107 491.126 256.306 492.023C249.175 493.706 242.031 494.789 235.013 496.989C225.111 500.092 215.736 504.76 205.622 507.178Q200.617 508.364 195.502 508.909Q190.388 509.453 185.245 509.347Q177.439 509.171 169.745 507.841C163.003 506.649 152.004 502.201 145.549 503.824C141.809 504.765 131.037 509.973 126.928 511.84C118.573 515.635 94.4128 529.979 87.0378 529.842C85.9516 529.822 85.1173 529.2 84.3982 528.448C82.5863 526.551 81.017 523.123 81.1135 520.469C81.1423 519.675 81.3805 519.157 81.7593 518.474C86.0923 515.096 101.094 509.733 106.995 507.043C118.634 501.739 130.099 494.873 142.245 490.877C145.929 489.664 149.367 489.06 153.255 489.566C157.455 490.112 161.596 491.62 165.703 492.645C171.455 494.08 177.831 494.833 183.748 495.088C192.262 495.455 201.696 494.726 209.79 491.92C225.293 486.547 233.029 478.418 250.9 476.36C252.922 475.815 255.032 475.413 256.741 474.154C241.925 470.808 230.903 464.872 222.523 451.723C217.569 443.948 214.985 434.436 217.124 425.294C220.361 411.453 236.178 387.549 243.891 374.543C246.521 370.109 250.191 365.077 251.655 360.138C252.585 356.999 252.078 353.604 252.14 350.377C255.976 344.236 263.097 340.832 267.298 334.707C271.771 328.185 275.392 321.182 279.5 314.438C286.206 303.431 293.483 292.725 300.554 281.947C303.572 277.347 306.227 272.353 309.394 267.886ZM330.108 258.665L329.886 259.199C326.773 266.573 321.946 273.571 317.712 280.34L295.308 315.537Q270.461 355.249 247.293 395.964C242.096 405.037 234.337 414.191 231.379 424.252C229.834 429.509 230.629 434.642 232.604 439.632C236.005 448.229 242.489 453.783 250.953 457.311C257.159 459.897 264.609 460.73 270.924 458.085C280.319 454.151 285.269 444.534 290.34 436.302C294.295 430.165 298.512 424.036 301.862 417.544C305.362 410.761 307.922 402.89 312.53 396.786C314.641 393.99 317.551 392.072 319.996 389.615C317.097 384.271 315.363 377.634 317.1 371.648C318.444 367.014 321.734 363.373 325.969 361.15C330.867 358.579 336.555 357.976 341.965 357.313C339.54 351.109 338.514 344.6 341.299 338.269C343.062 334.262 345.971 331.125 350.092 329.503C352.597 328.517 355.273 327.952 357.778 326.959C365.319 316.938 371.786 305.594 378.355 294.906C385.596 283.127 393.65 271.445 398.921 258.626C382.409 264.59 357.451 272.757 340.757 264.969C337.006 263.22 333.714 260.657 330.108 258.665ZM422.354 112.487C412.904 128.478 402.326 143.921 392.518 159.713C382.166 176.382 372.49 193.495 362.057 210.099C368.722 207.787 375.357 205.463 382.186 203.68C388.929 201.919 395.92 200.672 402.55 198.538C417.683 194.848 432.979 191.878 448.234 188.783C452.558 179.37 467.114 154.187 474.006 146.983C463.961 138.769 451.89 132.463 440.878 125.619C434.4 121.592 428.408 117.115 422.354 112.487ZM365.451 177.737C356.772 180.495 345.561 183.721 338.03 188.828C330.682 193.811 295.32 235.145 291.188 243.341C290.06 245.579 290.079 248.165 290.899 250.499C291.426 251.997 292.292 253.449 293.198 254.751C295.297 256.339 297.588 256.567 300.175 256.194C307.956 255.074 316.152 248.201 321.284 242.638C320.826 236.052 321.625 229.087 326.152 223.912C330.833 218.56 337.897 218.101 343.146 213.842C344.732 212.555 345.955 210.899 347.054 209.193C350.442 203.933 352.95 198.051 356.207 192.679C359.061 187.972 363.313 182.95 365.657 178.211L365.451 177.737ZM344.425 428.619C333.256 429.496 322.336 430.718 311.102 430.13C308.847 433.309 306.577 436.488 304.543 439.814C298.459 449.76 293.087 460.939 283.495 468.026C287.169 467.243 290.617 466.226 294.185 465.082C304.647 460.99 314.803 456.204 325.236 452.07C335.449 448.022 345.652 445.27 355.246 439.69C356.36 437.583 357.366 435.247 356.527 432.847C355.958 431.222 354.62 430.159 353.07 429.518C350.465 428.438 347.209 428.434 344.425 428.619ZM347.153 372.23C342.735 372.65 335.731 372.634 332.692 376.262C331.733 377.406 331.226 378.778 331.437 380.267C331.876 383.371 332.843 386.339 335.444 388.269C341.477 392.746 365.054 389.585 373.18 388.873C378.305 387.873 385.562 386.668 388.816 382.07C389.732 380.776 390.105 379.464 389.726 377.892C389.113 375.351 386.347 373.375 384.255 372.088C379.701 372.018 375.155 372.253 370.603 372.209C362.788 372.134 354.963 371.764 347.153 372.23ZM445.024 78.2595C454.478 88.1585 467.546 93.5133 478.328 101.71C478.9 98.9177 480.043 96.1534 480.93 93.4395C483.253 86.3339 483.629 79.807 482.238 72.4679C474.909 68.5843 464.514 65.995 456.366 68.6031C450.941 70.3397 448.384 74.1086 445.024 78.2595ZM375.092 339.313C369.924 339.626 359.486 339.421 355.779 343.41C354.441 344.851 353.915 346.791 354.03 348.725C354.18 351.236 355.261 354.341 357.298 355.948C360.497 358.471 367.437 357.87 371.324 357.742C377.624 357.71 386.704 358.01 391.47 353.163C392.792 351.819 393.693 349.972 393.652 348.062C393.604 345.821 392.298 343.864 390.66 342.426C386.387 338.672 380.808 338.786 375.491 339.274L375.092 339.313ZM413.552 291.633C404.214 292.96 396.85 293.98 390.771 302.001C386.68 307.397 382.59 314.007 380.463 320.462C383.157 319.751 385.537 318.934 388.032 317.673C394.864 315.434 418.891 307.283 421.938 301.715C422.643 300.428 422.687 299.042 422.227 297.664C421.396 295.179 419.104 292.992 416.729 291.963C415.732 291.531 414.616 291.532 413.552 291.633ZM360.503 403.381Q351.461 403.71 342.413 403.599C338.455 403.579 334.341 403.279 330.424 403.919C328.33 404.261 325.726 404.939 324.252 406.578C323.652 407.245 323.16 408.027 322.684 408.785C322.51 410.345 322.061 412.347 322.946 413.75C323.789 415.085 325.469 415.578 326.949 415.701C329.641 415.924 333.049 415.399 335.728 414.977C341.408 414.345 348.242 413.26 353.902 414.301C357.421 414.949 361.068 416.729 364.64 416.758C366.295 416.772 367.715 416.445 368.833 415.135C370.209 413.522 370.836 411.391 371.566 409.438C370.719 407.254 369.849 404.946 367.585 403.885C365.433 402.876 362.804 403.258 360.503 403.381ZM436.387 90.6619C434.48 94.3309 432.108 97.1815 429.324 100.213C438.175 105.52 446.904 112.524 455.77 117.409C456.53 115.017 457.478 112.512 457.889 110.033C458.282 107.661 458.099 106.358 456.702 104.415L436.387 90.6619Z"/>
    <path fill="#FF9AB6" transform="scale(1 1)" d="M265.657 473.517C272.165 471.429 278.306 468.394 285.022 466.975C281.126 470.585 274.944 473.617 269.573 474.117C263.477 475.867 257.259 477.274 250.9 476.36C252.922 475.815 255.032 475.413 256.741 474.154L265.657 473.517Z"/>
    <path fill="#FF9AB6" transform="scale(1 1)" d="M456.702 104.415C464.551 106.414 471.374 112.685 478.156 116.928C482.084 119.385 486.455 121.451 490.123 124.266C487.721 128.179 485.333 132.068 483.65 136.358C479.223 133.198 474.804 130.021 470.23 127.076C465.497 124.028 459.768 121.398 455.77 117.409C456.53 115.017 457.478 112.512 457.889 110.033C458.282 107.661 458.099 106.358 456.702 104.415Z"/>
    <path fill="#FF9AB6" transform="scale(1 1)" d="M482.238 72.4679Q483.008 72.8542 483.759 73.277Q484.51 73.6999 485.239 74.1583Q485.969 74.6167 486.675 75.1096Q487.382 75.6024 488.064 76.1287Q488.746 76.655 489.402 77.2133Q490.059 77.7717 490.687 78.361Q491.316 78.9503 491.915 79.569Q492.515 80.1878 493.084 80.8346Q493.653 81.4814 494.191 82.1548Q494.728 82.8283 495.233 83.5267Q495.737 84.2251 496.208 84.947Q496.678 85.6689 497.113 86.4125Q497.548 87.1561 497.947 87.9197Q498.346 88.6834 498.708 89.4653Q499.07 90.2472 499.394 91.0456Q499.718 91.844 500.003 92.657C502.701 100.582 500.138 106.652 496.764 113.8C490.702 109.663 484.268 106.001 478.328 101.71C478.9 98.9177 480.043 96.1534 480.93 93.4395C483.253 86.3339 483.629 79.807 482.238 72.4679Z"/>
    <path fill="#FFCBD9" transform="scale(1 1)" d="M419.166 137.733C419.823 137.683 420.488 137.638 421.146 137.67C423.421 137.78 426.214 138.314 427.732 140.174C428.813 141.5 429.031 143.25 428.766 144.897C428.103 149.024 424.765 152.887 421.502 155.324C420.081 155.943 418.858 156.479 417.281 156.281C415.889 156.105 414.714 155.523 413.894 154.361C412.367 152.2 412.336 149.021 412.91 146.54C413.797 142.705 415.815 139.763 419.166 137.733Z"/>
  </svg>